<?xml version="1.0" encoding="utf-8"?>
<!-- Generator: Adobe Illustrator 16.0.0, SVG Export Plug-In . SVG Version: 6.00 Build 0)  -->
<!DOCTYPE svg PUBLIC "-//W3C//DTD SVG 1.1//EN" "http://www.w3.org/Graphics/SVG/1.1/DTD/svg11.dtd">
<svg version="1.1" id="Layer_1" xmlns="http://www.w3.org/2000/svg" xmlns:xlink="http://www.w3.org/1999/xlink" x="0px" y="0px"
	 width="864px" height="864px" viewBox="0 0 864 864" enable-background="new 0 0 864 864" xml:space="preserve">
<g>
	<path fill-rule="evenodd" clip-rule="evenodd" d="M239.743,625.988c0-7.782-0.288-15.578,0.081-23.344
		c0.37-7.783,1.812-15.525,2.01-23.305c0.176-6.934-0.565-13.907-1.25-20.828c-0.132-1.341-1.712-3.421-2.898-3.634
		c-8.121-1.458-16.299-2.629-24.491-3.637c-3.642-0.448-7.589,0.462-10.995-0.571c-9.695-2.94-12.402-6.593-12.625-16.862
		c-0.297-13.741-0.339-27.495-0.083-41.236c0.163-8.743,1.178-17.468,1.596-26.211c0.245-5.123-0.419-10.323,0.182-15.387
		c1.113-9.381,11.337-16.19,22.521-18.754c15.448-3.541,31.148-4.155,46.691-6.367c10.903-1.552,11.928-5.601,7.73-15.845
		c-3.191-7.787-3.845-16.627-5.519-25.021c-2.428-12.171-4.618-24.392-7.167-36.537c-2.909-13.857-7.301-27.522-8.837-41.514
		c-1.594-14.515-1.836-29.456-0.328-43.967c2.016-19.394,12.989-34.286,29.778-43.987c13.281-7.674,27.573-13.582,41.004-21.019
		c11.116-6.155,22.773-10.306,35.164-12.516c14.236-2.539,28.482-6.274,42.803-6.68c11.449-0.324,22.035-4.641,33.227-4.57
		c10.791,0.067,21.627,0.732,32.349,1.961c12.665,1.452,25.302,3.421,37.808,5.89c6.791,1.341,13.306,4.129,19.908,6.371
		c7.072,2.4,14.25,4.577,21.113,7.486c8.527,3.615,16.991,7.498,25.098,11.964c9.989,5.503,19.953,11.204,29.234,17.795
		c8.355,5.933,16.75,12.584,21.088,22.164c4.808,10.618,8.779,21.293,5.11,33.917c-6.067,20.878-10.477,42.236-15.644,63.378
		c-4.609,18.859-9.22,37.719-13.993,56.537c-1.626,6.412-3.642,12.731-5.678,19.029c-2.007,6.206-1.424,8.462,4.464,11.091
		c3.6,1.607,7.604,2.3,11.418,3.438c6.479,1.932,13.041,3.64,19.398,5.916c5.243,1.878,10.247,4.429,15.346,6.705
		c13.603,6.073,18.763,17.365,18.663,31.402c-0.136,19.282-0.84,38.561-1.109,57.844c-0.06,4.285,0.829,8.576,1.01,12.875
		c0.174,4.149-1.688,7.41-5.978,7.933c-7.182,0.873-14.426,1.269-21.653,1.704c-4.298,0.259-8.614,0.307-12.921,0.274
		c-4.828-0.036-8.059,2.51-8.223,6.966c-0.382,10.389-0.034,20.806,0.1,31.21c0.104,8.138,1.032,16.334,0.343,24.396
		c-1.042,12.173-3.145,24.256-4.854,36.369c-1.033,7.324-6.177,9.513-12.676,11.284c-10.787,2.941-21.319,2.364-32.019,0.249
		c-13.557-2.68-19.168-12.179-20.811-24.679c-0.873-6.642-0.66-13.419-1.162-20.119c-0.268-3.583-1.214-7.116-1.475-10.7
		c-0.213-2.938,0.252-5.919,0.215-8.878c-0.145-11.124-0.527-22.249-0.488-33.372c0.016-4.306-1.957-5.651-5.761-5.491
		c-0.661,0.028-1.338,0.126-1.973,0.311c-11.774,3.414-23.856,3.667-35.989,3.735c-7.373,0.041-13.348,2.962-17.78,9.185
		c-7.552,10.598-18.906,14.259-31.024,16.658c-13.103,2.595-24.351-1.638-35.507-7.917c-9.722-5.472-19.456-10.735-27.518-18.637
		c-1.305-1.278-3.475-2.01-5.355-2.313c-15.333-2.479-30.701-4.731-46.037-7.19c-6.927-1.111-10.045,0.635-10.196,7.54
		c-0.229,10.445,0.538,20.909,0.561,31.365c0.017,7.77-1.051,15.574-0.6,23.303c0.617,10.573-1.256,20.748-3.273,30.957
		c-1.35,6.84-5.562,11.914-11.736,14.524c-4.582,1.938-9.823,2.451-14.83,3.193c-2.592,0.385-5.318-0.058-7.978-0.222
		c-25.16-1.554-38.157-15.869-37.372-41.119c0.047-1.497,0.006-2.998,0.006-4.496C239.887,625.986,239.815,625.987,239.743,625.988z
		"/>
	<path fill-rule="evenodd" clip-rule="evenodd" d="M621.472,771.272c1.909-10.411,2.165-10.554,11.476-10.433
		c8.133,0.106,16.268,0.022,24.055,0.022c0.529,0.782,0.859,1.042,0.864,1.309c0.205,11.112,0.688,22.234,0.345,33.331
		c-0.086,2.785-2.146,6.843-4.464,8.018c-21.44,10.867-44.269,12.185-62.492-8.509c-22.012-24.996-8.359-66.237,24.142-73.467
		c15.309-3.406,28.769,0.183,41.413,10.226c-2.405,2.741-4.43,5.049-6.681,7.614c-1.938-1.055-3.72-1.859-5.329-2.926
		c-14.293-9.476-31.504-6.535-42.078,4.028c-12.964,12.949-14.427,30.935-4.422,45.494c10.703,15.574,29.308,19.522,45.066,9.558
		c0.702-0.444,1.952-0.901,1.979-1.402c0.372-7.284,0.634-14.577,0.645-21.868c0.001-0.33-2.618-0.929-4.023-0.95
		C635.184,771.218,628.399,771.272,621.472,771.272z"/>
	<path fill-rule="evenodd" clip-rule="evenodd" d="M567.226,810.007c-9.491-10.272-18.413-20.257-27.7-29.891
		c-9.189-9.531-16.954-20.5-27.211-28.97c-0.441,0.281-0.883,0.562-1.325,0.842c0,18.7,0,37.401,0,56.862
		c-3.339,0.396-6.822,0.811-11.091,1.317c0-29.712,0-58.708,0-88.633c18.488,19.923,36.572,39.412,54.657,58.9
		c0.544-0.172,1.087-0.345,1.63-0.518c0-3.36,0.014-6.721-0.002-10.081c-0.063-13.152,0.096-26.311-0.328-39.451
		c-0.15-4.672,0.943-6.922,5.842-6.734c1.57,0.06,3.163-0.499,5.528-0.911C567.226,751.896,567.226,780.507,567.226,810.007z"/>
	<path fill-rule="evenodd" clip-rule="evenodd" d="M365.665,771.135c8.883,12.216,17.408,23.939,25.894,35.609
		c-0.358,0.427-0.515,0.807-0.754,0.869c-11.581,3.012-11.658,3.062-18.785-6.941c-6.937-9.735-13.691-19.602-20.538-29.402
		c-0.915-1.309-1.899-2.567-4.045-3.578c0,1.669-0.012,3.338,0.002,5.007c0.085,10.13,0.068,20.264,0.319,30.39
		c0.101,4.097-1.181,6.317-5.587,6.185c-1.786-0.054-3.585,0.346-5.933,0.599c-0.213-1.599-0.605-3.154-0.601-4.708
		c0.052-19.55,0.172-39.1,0.251-58.649c0.032-7.921,0.005-15.842,0.005-24.62c14.248,1.356,29.199-3.33,41.762,7.832
		c12.187,10.827,8.175,33.904-7.08,39.358C369.229,769.565,367.931,770.184,365.665,771.135z M347.156,748.245
		c0.007,0,0.013,0,0.02,0c0,1.664,0.003,3.328,0,4.992c-0.023,11.446,1.123,12.429,12.469,10.679
		c7.812-1.205,13.561-8.146,13.432-16.217c-0.13-8.156-5.547-13.804-14.106-14.547c-2.646-0.229-5.328-0.037-7.98-0.22
		c-2.857-0.197-3.894,1.143-3.85,3.827C347.204,740.587,347.156,744.416,347.156,748.245z"/>
	<path fill-rule="evenodd" clip-rule="evenodd" d="M362.259,135.041c0-29.619,0-58.358,0-87.707
		c11.162,0.238,22.058-1.972,32.734,1.709c17.657,6.087,19.599,25.427,13.079,36.025c-2.248,3.655-6.831,5.931-10.505,8.621
		c-1.245,0.911-2.977,1.157-5.53,2.087c8.733,12.171,17.088,23.813,25.969,36.189c-3.999,0.99-7.796,2.208-11.685,2.706
		c-1.025,0.131-2.583-1.787-3.474-3.06c-7.999-11.429-15.89-22.932-23.85-34.388c-1.104-1.589-2.41-3.037-3.622-4.551
		c-0.448,0.104-0.896,0.208-1.345,0.312c-0.209,7.66-0.521,15.319-0.588,22.98c-0.037,4.275,0.299,8.557,0.533,12.832
		c0.169,3.088-0.587,5.184-4.272,5.25C367.423,134.086,365.151,134.634,362.259,135.041z M373.922,89
		c4.047,0,7.374,0.265,10.644-0.052c8.57-0.83,14.92-7.303,15.169-15.141c0.276-8.657-4.562-14.553-13.323-15.779
		c-3.103-0.434-6.342-0.404-9.45-0.02c-1.119,0.139-2.88,1.917-2.907,2.983C373.823,70.107,373.922,79.232,373.922,89z"/>
	<path fill-rule="evenodd" clip-rule="evenodd" d="M412.367,720.445c0,14.526,0,28.202,0,41.879c0.49,0.18,0.979,0.358,1.47,0.538
		c3.843-4.645,7.771-9.223,11.512-13.948c6.898-8.712,13.907-17.352,20.403-26.358c2.32-3.218,4.205-3.568,7.304-1.783
		c1.841,1.06,3.86,1.807,6.433,2.984c-5.496,6.892-10.707,13.49-15.99,20.031c-4.771,5.908-9.564,11.801-14.469,17.598
		c-1.688,1.995-1.705,3.425-0.043,5.57c9.849,12.723,19.528,25.576,29.829,39.13c-3.442,1.357-6.637,2.929-10.013,3.76
		c-1.01,0.249-2.882-1.302-3.759-2.477c-8.449-11.301-16.752-22.71-25.137-34.058c-1.943-2.629-4.043-5.143-6.476-8.223
		c-0.646,1.444-1.328,2.252-1.318,3.052c0.154,12.607,0.454,25.214,0.512,37.821c0.004,1.024-1.334,2.686-2.347,2.965
		c-2.827,0.777-5.811,0.984-9.041,1.462c-0.175-3.999-0.463-7.617-0.471-11.235c-0.039-18.112,0.029-36.224-0.014-54.336
		c-0.013-5.629-0.105-11.268-0.444-16.884c-0.249-4.126,0.536-6.829,5.505-6.491C407.562,721.562,409.363,720.932,412.367,720.445z"
		/>
	<path fill-rule="evenodd" clip-rule="evenodd" d="M241.434,807.86c14.569-29.577,28.679-58.221,43.363-88.03
		c15.06,29.779,29.61,58.549,44.493,87.976c-3.649,0.759-6.816,1.726-10.028,1.91c-1.077,0.062-2.676-1.654-3.339-2.923
		c-3.776-7.221-7.422-14.513-10.942-21.862c-1.619-3.381-3.844-4.951-7.765-4.841c-9.072,0.256-18.165-0.088-27.227,0.315
		c-1.685,0.075-3.866,2.183-4.789,3.904c-3.685,6.875-7.193,13.868-10.3,21.021c-1.699,3.911-3.61,5.633-7.832,3.693
		C245.651,808.373,243.945,808.353,241.434,807.86z M297.539,769.244c-4.408-8.589-8.306-16.184-12.203-23.779
		c-0.589,0.082-1.179,0.164-1.768,0.246c-3.604,7.487-7.208,14.976-11.041,22.938c1.626,0.279,2.544,0.568,3.465,0.573
		C282.762,769.262,289.532,769.244,297.539,769.244z"/>
	<path fill-rule="evenodd" clip-rule="evenodd" d="M542.062,122.917c0.048,0.937,0.149,1.285,0.07,1.585
		c-2.415,9.123-2.418,9.047-11.725,9.04c-11.291-0.009-22.586-0.037-33.869,0.287c-4.014,0.115-5.498-0.756-5.5-5.144
		c-0.005-16.134-0.594-32.267-0.707-48.402c-0.07-9.933,0.594-19.875,0.379-29.8c-0.084-3.89,2.049-4.126,4.527-4.158
		c8.811-0.115,17.625-0.032,26.438-0.027c4.981,0.003,9.962,0,15.276,0c0.89,3.82,1.656,7.115,2.612,11.222
		c-12.397,0-24.174,0-36.527,0c0,8.138-0.132,15.587,0.18,23.019c0.035,0.847,2.539,2.236,3.924,2.27
		c6.268,0.15,12.543-0.104,18.816-0.196c1.961-0.029,3.923-0.004,5.831-0.004c0.212,3.61,1.403,7.112,0.21,9.33
		c-0.836,1.553-4.912,1.714-7.574,1.856c-5.312,0.283-10.648,0.189-15.974,0.126c-3.868-0.045-5.737,1.345-5.497,5.583
		c0.312,5.478,0.063,10.987,0.093,16.482c0.035,6.734,0.05,6.842,6.989,6.905C520.621,122.988,531.209,122.917,542.062,122.917z"/>
	<path fill-rule="evenodd" clip-rule="evenodd" d="M478.941,122.293c-1.239,3.948-1.85,6.719-3.019,9.23
		c-0.502,1.079-2.156,2.288-3.299,2.3c-14.894,0.153-29.79,0.102-44.89,0.102c0-29.127,0-57.77,0-87.51
		c9.322,0,18.105,0.009,26.888-0.004c3.981-0.006,7.972,0.112,11.94-0.128c6.541-0.396,8.547,2.053,8.53,11.486
		c-11.947,0-23.907,0-35.872,0c0,7.112-0.077,13.573,0.035,20.031c0.051,2.877,1.461,4.485,4.681,4.435
		c7.947-0.125,15.897-0.041,24.345-0.041c0.227,4.231,0.4,7.455,0.619,11.515c-3.24,0.155-6.26,0.323-9.281,0.44
		c-5.787,0.223-11.6,0.187-17.342,0.812c-1.186,0.129-2.947,2.643-3.009,4.117c-0.308,7.446-0.142,14.911-0.142,23.217
		C452.407,122.293,465.093,122.293,478.941,122.293z"/>
	<path fill-rule="evenodd" clip-rule="evenodd" d="M193.052,809.293c-0.252-1.55-0.637-2.847-0.649-4.148
		c-0.251-25.79-0.409-51.581-0.726-77.371c-0.056-4.531,1.17-6.669,6.244-6.235c8.907,0.762,17.938,0.38,26.779,1.537
		c10.607,1.389,19.154,11.432,19.566,21.562c0.63,15.504-4.668,24.511-17.172,27.661c-7.154,1.803-14.601,2.445-23.055,3.792
		c0,6.93,0.04,14.706-0.01,22.482C203.963,808.824,203.933,808.824,193.052,809.293z M204.015,747.865c-0.015,0-0.029,0-0.044,0
		c0,1.16-0.007,2.32,0.001,3.479c0.1,14.017,0.1,14.017,13.994,12.55c6.831-0.722,12.587-4.84,13.836-10.368
		c1.587-7.029,0.956-13.853-5.296-17.708c-6.42-3.959-13.384-3.131-20.268-3.139c-0.74,0-2.042,2.061-2.121,3.23
		C203.85,739.88,204.015,743.878,204.015,747.865z"/>
	<path fill-rule="evenodd" clip-rule="evenodd" d="M306.953,134.911c0-21.359,0.03-42.285-0.017-63.211
		c-0.015-6.791-0.15-13.584-0.397-20.37c-0.104-2.858,0.664-4.362,3.832-4.344c13.288,0.077,26.577,0.033,40.2,0.033
		c0.833,3.431,1.622,6.683,2.591,10.678c-10.522,0-20.424,0.069-30.325-0.039c-3.294-0.036-4.744,0.7-4.464,4.542
		c0.396,5.453,0.044,10.976-0.219,16.458c-0.168,3.512,1.28,4.703,4.689,4.626c7.1-0.16,14.206-0.048,21.755-0.048
		c0,3.36,0,6.551,0,10.617c-6.937,0-13.872,0.223-20.784-0.086c-3.979-0.178-5.353,1.174-5.267,5.083
		c0.211,9.588,0.085,19.184,0.223,28.774c0.086,6-0.318,6.57-6.164,6.92C310.979,134.641,309.352,134.754,306.953,134.911z"/>
	<path fill-rule="evenodd" clip-rule="evenodd" d="M470.63,769.305c0-14.263-0.056-28.526,0.079-42.787
		c0.015-1.588,0.846-4.327,1.759-4.538c3.134-0.722,6.474-0.667,9.726-0.565c0.34,0.01,0.879,2.294,0.87,3.521
		c-0.065,9.579-0.285,19.157-0.371,28.737c-0.091,10.241-0.134,20.484-0.111,30.727c0.015,6.633,0.034,13.271,0.343,19.895
		c0.158,3.407-0.846,4.738-4.431,4.807c-7.247,0.139-7.212,0.332-7.192-6.892c0.027-10.968,0.007-21.935,0.007-32.902
		C471.082,769.306,470.855,769.305,470.63,769.305z"/>
</g>
<g>
	<path fill-rule="evenodd" clip-rule="evenodd" fill="#BE7D83" d="M295.824,565.297c0.918,10.493,2.206,18.906,2.268,27.329
		c0.104,14.083-0.193,28.196-1.106,42.246c-0.368,5.667-2.578,11.273-4.364,16.772c-1.585,4.882-5.733,6.092-10.396,5.884
		c-14.97-0.669-23.501-11.184-21.348-25.931c1.242-8.505,1.048-16.838,0.112-25.599c-1.495-13.986,0.333-28.365,1.226-42.549
		c0.29-4.594,3.763-6.917,8.505-6.394c7.253,0.801,14.499,1.682,21.724,2.698C295.498,560.186,295.957,561.513,295.824,565.297z"/>
	<path fill-rule="evenodd" clip-rule="evenodd" fill="#BE7D83" d="M588.41,629.59c-0.845,4.57-1.829,11.246-3.361,17.795
		c-1.423,6.085-3.964,7.523-10.024,6.865c-1.972-0.215-3.99-0.237-5.972-0.107c-9.205,0.602-13.9-2.807-16.08-11.818
		c-0.312-1.29-0.745-2.601-0.758-3.905c-0.193-20.203-0.674-40.413-0.316-60.608c0.162-9.236,4.43-12.434,13.669-12.894
		c3.646-0.182,7.36-0.275,10.898-1.062c4.908-1.09,6.759,1.027,7.157,5.485c1.302,14.542,2.673,29.077,3.918,43.623
		C587.949,617.741,588.053,622.544,588.41,629.59z"/>
	<path fill-rule="evenodd" clip-rule="evenodd" fill="#BE7D83" d="M375.473,269.038c24.437,0.577,48.873,1.172,73.311,1.725
		c17.086,0.387,34.173,0.779,51.262,1.026c4.128,0.06,5.795,2.169,5.748,5.875c-0.206,16.41-0.5,32.819-0.799,49.228
		c-0.065,3.574-2.278,4.958-5.554,4.865c-5.474-0.156-10.946-0.649-16.415-0.597c-8.624,0.083-17.244,0.694-25.867,0.72
		c-8.796,0.026-17.596-0.315-26.39-0.617c-22.902-0.785-45.807-1.512-68.699-2.531c-7.888-0.351-9.248-2.856-9.09-10.967
		c0.248-12.744,0.194-25.509-0.249-38.247c-0.304-8.745,2.166-11.59,10.767-11.048c3.979,0.25,7.987,0.043,11.982,0.043
		C375.478,268.687,375.475,268.862,375.473,269.038z"/>
	<path fill-rule="evenodd" clip-rule="evenodd" fill="#BE7D83" d="M432.464,528.874c-24.396-0.766-38.946-8.015-51.293-20.022
		c-11.125-10.819-18.828-24.7-19.584-39.398c-1.014-19.707,5.836-38.293,21.741-51.856c13.234-11.286,28.543-18.219,46.147-16.799
		c36.133,2.914,59.681,30.307,61.581,60.326C493.572,500.916,459.871,530.38,432.464,528.874z M426.204,443.241
		c-11.638-0.854-22.001,10.299-22.11,19.812c-0.148,12.889,10.63,24.765,22.884,25.002c12.077,0.233,22.077-9.917,21.655-22.902
		C448.256,453.56,439.985,443.096,426.204,443.241z"/>
</g>
<g>
	<path fill-rule="evenodd" clip-rule="evenodd" fill="#BE1E2D" d="M208.279,515.739c0-9.33-0.407-18.684,0.137-27.981
		c0.391-6.687,2.092-13.293,3.121-19.949c0.332-2.141,0.773-4.377,0.488-6.478c-0.618-4.555,1.19-7.538,5.945-9.273
		c6.036-2.202,11.978-4.669,18.054-6.746c1.803-0.616,3.931-0.461,5.899-0.385c5.088,0.199,9.712-0.418,14.409-3.126
		c2.614-1.507,6.772-0.321,10.233-0.38c3.947-0.066,8.037,0.47,11.812-0.379c8.887-1.998,9.393-9.746,9.417-16.653
		c0.029-8.19-0.617-16.514-2.163-24.551c-2.4-12.48-7.3-24.382-7.958-37.336c-0.456-8.957-2.177-17.854-3.442-26.763
		c-0.597-4.209-1.597-8.362-2.153-12.575c-1.053-7.989-1.724-16.032-2.914-23.999c-1.257-8.414-3.566-16.718-4.206-25.161
		c-0.426-5.62,0.975-11.458,2.093-17.092c1.302-6.567,4.869-12.291,10.064-16.223c5.521-4.179,11.964-7.137,17.999-10.638
		c3.662-2.124,7.174-4.568,11.001-6.33c6.858-3.157,13.865-6.004,20.884-8.797c5.715-2.273,11.505-4.371,17.32-6.377
		c6.671-2.301,13.419-4.378,20.112-6.617c10.685-3.574,21.888-3.726,32.863-5.406c16.733-2.562,33.399-3.026,50.156-2.331
		c10.815,0.449,21.677,1.304,32.354,3.005c7.322,1.167,14.334,4.211,21.54,6.214c6.099,1.695,12.44,2.647,18.373,4.77
		c4.998,1.789,9.483,4.959,14.339,7.21c7.248,3.36,14.694,6.294,21.92,9.7c6.244,2.944,12.471,6.002,18.389,9.54
		c6.468,3.867,12.435,8.566,18.865,12.5c8.703,5.323,9.278,13.434,8.368,22.229c-0.861,8.316-1.283,16.709-2.709,24.929
		c-1.768,10.186-4.137,20.286-6.668,30.317c-3.163,12.53-6.721,24.962-10.178,37.417c-1.397,5.036-3.135,9.98-4.442,15.038
		c-1.968,7.61-3.591,15.31-5.558,22.92c-1.562,6.039-2.984,12.172-5.253,17.955c-2.951,7.521-1.898,14.727,1.076,21.615
		c0.938,2.175,4.349,3.624,6.927,4.668c3.893,1.577,8.101,2.354,12.078,3.747c5.835,2.044,11.561,4.399,17.383,6.481
		c2.57,0.919,5.261,1.51,7.904,2.217c5.844,1.563,11.725,3.004,17.513,4.752c1.056,0.319,2.109,1.727,2.536,2.867
		c2.339,6.251,5.89,11.799,4.507,19.471c-1.395,7.728,0.089,15.955,0.122,23.964c0.035,8.322,0.04,16.654-0.329,24.965
		c-0.193,4.372-2.768,6.42-7.477,6.829c-7.148,0.621-14.211,2.194-21.322,3.281c-4.016,0.613-8.045,1.205-12.089,1.555
		c-7.526,0.65-15.372,0.005-22.524,1.955c-7.97,2.173-15.635,0.529-23.412,0.935c-8.778,0.458-17.748,0.041-26.277,1.768
		c-10.898,2.206-21.704,3.182-32.76,2.992c-5.154-0.088-10.37,0.506-15.479,1.304c-6.641,1.038-9.389,6.687-12.387,11.719
		c-3.739,6.277-8.988,9.769-16.109,11.779c-8.494,2.399-16.88,4.055-25.67,3.156c-6.001-0.613-11.45-2.74-16.038-6.701
		c-7.462-6.442-14.435-13.547-22.416-19.251c-3.622-2.588-9.107-3.017-13.843-3.512c-12.724-1.331-25.527-1.904-38.244-3.285
		c-10.702-1.161-21.327-3.031-31.986-4.594c-5.793-0.849-11.601-1.608-17.372-2.588c-8.885-1.506-17.922-2.527-26.561-4.946
		c-8.033-2.25-15.713,1.401-23.576-0.127c-6.433-1.25-13.039-1.652-19.423-3.082c-1.428-0.319-2.989-3.278-3.188-5.16
		c-0.381-3.604,0.17-7.308,0.335-10.97C208.555,515.74,208.417,515.739,208.279,515.739z M431.748,250.095
		c0,0.021-0.001,0.041-0.002,0.062c-22.643-0.669-45.283-1.519-67.932-1.909c-7.955-0.137-15.941,0.714-23.891,1.386
		c-4.282,0.362-5.923,3.132-5.591,7.555c0.689,9.198,1.732,18.42,1.605,27.618c-0.196,14.243-1.355,28.47-1.885,42.711
		c-0.203,5.439,0.427,10.909,0.258,16.351c-0.121,3.872,1.149,5.681,4.653,7.917c3.39,2.164,5.186-0.289,7.588-0.352
		c18.751-0.494,37.391,1.847,56.298,0.037c17.61-1.686,35.588,0.501,53.405,0.944c9.824,0.245,19.65,0.551,29.477,0.539
		c3.818-0.005,7.662-1.333,11.447-1.14c6.563,0.335,13.074,1.605,19.637,2.062c4.93,0.343,7.065-1.995,7.225-7.098
		c0.344-10.988,0.899-21.978,0.872-32.966c-0.033-13.416-0.651-26.83-0.857-40.247c-0.073-4.734,0.429-9.475,0.471-14.214
		c0.044-4.807-2.149-7.032-6.853-7.149C489.031,251.485,460.389,250.794,431.748,250.095z M425.047,549.862
		c23.457,1.917,43.587-7.604,60.515-23.276c14.225-13.17,22.919-30.196,25.189-49.82c3.053-26.406-3.41-50.99-22.254-69.289
		c-20.549-19.953-45.703-31.611-76.082-25.897c-33.213,6.247-68.717,31.754-70.282,82.111c-0.732,23.577,8.2,43.652,23.969,60.416
		C381.706,540.693,401.147,549.996,425.047,549.862z"/>
	<path fill-rule="evenodd" clip-rule="evenodd" fill="#BE1E2D" d="M424.846,475.681c-6.875,0.147-10-2.867-10.204-9.847
		c-0.221-7.575,4.062-12.736,10.667-12.854c7.112-0.128,13.362,5.136,13.431,11.312
		C438.822,471.395,433.829,475.487,424.846,475.681z"/>
</g>
</svg>
